<?xml version="1.0" encoding="UTF-8" standalone="no"?>
<svg
   xmlns:dc="http://purl.org/dc/elements/1.1/"
   xmlns:cc="http://creativecommons.org/ns#"
   xmlns:rdf="http://www.w3.org/1999/02/22-rdf-syntax-ns#"
   xmlns:svg="http://www.w3.org/2000/svg"
   xmlns="http://www.w3.org/2000/svg"
   xmlns:xlink="http://www.w3.org/1999/xlink"
   xmlns:sodipodi="http://sodipodi.sourceforge.net/DTD/sodipodi-0.dtd"
   xmlns:inkscape="http://www.inkscape.org/namespaces/inkscape"
   width="201.16417mm"
   height="201.16417mm"
   viewBox="0 0 201.16417 201.16417"
   version="1.1"
   id="svg8"
   sodipodi:docname="drawing-2.svg"
   inkscape:version="1.0.1 (3bc2e813f5, 2020-09-07)">
  <defs
     id="defs2">
    <linearGradient
       inkscape:collect="always"
       id="linearGradient1819">
      <stop
         style="stop-color:#faec78;stop-opacity:1"
         offset="0"
         id="stop1815" />
      <stop
         style="stop-color:#f6890d;stop-opacity:1"
         offset="1"
         id="stop1817" />
    </linearGradient>
    <linearGradient
       inkscape:collect="always"
       id="linearGradient1046">
      <stop
         style="stop-color:#faed7c;stop-opacity:1;"
         offset="0"
         id="stop1042" />
      <stop
         style="stop-color:#f6a00d;stop-opacity:0"
         offset="1"
         id="stop1044" />
    </linearGradient>
    <inkscape:path-effect
       effect="bspline"
       id="path-effect1192"
       is_visible="true"
       lpeversion="1"
       weight="33.333333"
       steps="2"
       helper_size="0"
       apply_no_weight="true"
       apply_with_weight="true"
       only_selected="false" />
    <inkscape:path-effect
       effect="bspline"
       id="path-effect1173"
       is_visible="true"
       lpeversion="1"
       weight="33.333333"
       steps="2"
       helper_size="0"
       apply_no_weight="true"
       apply_with_weight="true"
       only_selected="false" />
    <clipPath
       clipPathUnits="userSpaceOnUse"
       id="clipPath976-7">
      <circle
         style="fill:#d1f6ff;fill-opacity:1;stroke:#000000;stroke-width:1.16417;stroke-linecap:square;stroke-linejoin:round;stroke-opacity:1"
         id="circle978-1"
         cx="100.58208"
         cy="129.97958"
         r="100" />
    </clipPath>
    <clipPath
       clipPathUnits="userSpaceOnUse"
       id="clipPath1072">
      <circle
         style="fill:#d1f6ff;fill-opacity:1;stroke:#000000;stroke-width:1.16417;stroke-linecap:square;stroke-linejoin:round;stroke-opacity:1"
         id="circle1074"
         cx="100.58208"
         cy="124.68791"
         r="100" />
    </clipPath>
    <clipPath
       clipPathUnits="userSpaceOnUse"
       id="clipPath1011">
      <circle
         style="fill:#61e0ff;fill-opacity:1;stroke:#000000;stroke-width:1.16417;stroke-linecap:square;stroke-linejoin:round;stroke-opacity:1"
         id="circle1013"
         cx="100.58208"
         cy="134.7485"
         r="100" />
    </clipPath>
    <linearGradient
       inkscape:collect="always"
       xlink:href="#linearGradient1819"
       id="linearGradient1048"
       x1="99.974701"
       y1="34.584824"
       x2="100.13628"
       y2="234.70731"
       gradientUnits="userSpaceOnUse" />
    <clipPath
       clipPathUnits="userSpaceOnUse"
       id="clipPath1767">
      <circle
         style="fill:url(#linearGradient1771);fill-opacity:1;stroke:#000000;stroke-width:1.16417;stroke-linecap:square;stroke-linejoin:round;stroke-opacity:1"
         id="circle1769"
         cx="100.58208"
         cy="115.6985"
         r="100" />
    </clipPath>
    <linearGradient
       inkscape:collect="always"
       xlink:href="#linearGradient1046"
       id="linearGradient1771"
       gradientUnits="userSpaceOnUse"
       gradientTransform="translate(-1.0452881e-6,-19.050007)"
       x1="99.974701"
       y1="34.584824"
       x2="100.13628"
       y2="234.70731" />
    <clipPath
       clipPathUnits="userSpaceOnUse"
       id="clipPath1773">
      <circle
         style="fill:url(#linearGradient1777);fill-opacity:1;stroke:#000000;stroke-width:1.16417;stroke-linecap:square;stroke-linejoin:round;stroke-opacity:1"
         id="circle1775"
         cx="94.753983"
         cy="97.264702"
         r="100" />
    </clipPath>
    <linearGradient
       inkscape:collect="always"
       xlink:href="#linearGradient1046"
       id="linearGradient1777"
       gradientUnits="userSpaceOnUse"
       gradientTransform="translate(-5.8280964,-37.48381)"
       x1="99.974701"
       y1="34.584824"
       x2="100.13628"
       y2="234.70731" />
    <clipPath
       clipPathUnits="userSpaceOnUse"
       id="clipPath1779">
      <circle
         style="fill:url(#linearGradient1783);fill-opacity:1;stroke:#000000;stroke-width:1.16417;stroke-linecap:square;stroke-linejoin:round;stroke-opacity:1"
         id="circle1781"
         cx="100.58208"
         cy="134.7485"
         r="100" />
    </clipPath>
    <linearGradient
       inkscape:collect="always"
       xlink:href="#linearGradient1046"
       id="linearGradient1783"
       gradientUnits="userSpaceOnUse"
       gradientTransform="translate(-1.0452881e-6)"
       x1="99.974701"
       y1="34.584824"
       x2="100.13628"
       y2="234.70731" />
    <clipPath
       clipPathUnits="userSpaceOnUse"
       id="clipPath1809">
      <circle
         style="fill:url(#linearGradient1813);fill-opacity:1;stroke:#000000;stroke-width:1.16417;stroke-linecap:square;stroke-linejoin:round;stroke-opacity:1"
         id="circle1811"
         cx="101.10398"
         cy="86.681358"
         r="100" />
    </clipPath>
    <linearGradient
       inkscape:collect="always"
       xlink:href="#linearGradient1046"
       id="linearGradient1813"
       gradientUnits="userSpaceOnUse"
       gradientTransform="translate(0.52190443,-48.067137)"
       x1="99.974701"
       y1="34.584824"
       x2="100.13628"
       y2="234.70731" />
    <clipPath
       clipPathUnits="userSpaceOnUse"
       id="clipPath1767-5">
      <circle
         style="fill:url(#linearGradient1771);fill-opacity:1;stroke:#000000;stroke-width:1.16417;stroke-linecap:square;stroke-linejoin:round;stroke-opacity:1"
         id="circle1769-1"
         cx="100.58208"
         cy="115.6985"
         r="100" />
    </clipPath>
    <clipPath
       clipPathUnits="userSpaceOnUse"
       id="clipPath1866">
      <circle
         style="fill:url(#linearGradient1870);fill-opacity:1;stroke:#000000;stroke-width:1.16417;stroke-linecap:square;stroke-linejoin:round;stroke-opacity:1"
         id="circle1868"
         cx="100.84767"
         cy="95.674896"
         r="100" />
    </clipPath>
    <linearGradient
       inkscape:collect="always"
       xlink:href="#linearGradient1819"
       id="linearGradient1870"
       gradientUnits="userSpaceOnUse"
       gradientTransform="translate(0.26558233,-39.073611)"
       x1="99.974701"
       y1="34.584824"
       x2="100.13628"
       y2="234.70731" />
    <clipPath
       clipPathUnits="userSpaceOnUse"
       id="clipPath1767-1">
      <circle
         style="fill:url(#linearGradient1771);fill-opacity:1;stroke:#000000;stroke-width:1.16417;stroke-linecap:square;stroke-linejoin:round;stroke-opacity:1"
         id="circle1769-2"
         cx="100.58208"
         cy="115.6985"
         r="100" />
    </clipPath>
    <clipPath
       clipPathUnits="userSpaceOnUse"
       id="clipPath1917">
      <circle
         style="fill:url(#linearGradient1921);fill-opacity:1;stroke:#000000;stroke-width:1.16417;stroke-linecap:square;stroke-linejoin:round;stroke-opacity:1"
         id="circle1919"
         cx="99.593971"
         cy="75.687119"
         r="100" />
    </clipPath>
    <linearGradient
       inkscape:collect="always"
       xlink:href="#linearGradient1819"
       id="linearGradient1921"
       gradientUnits="userSpaceOnUse"
       gradientTransform="translate(-0.98810874,-59.06139)"
       x1="99.974701"
       y1="34.584824"
       x2="100.13628"
       y2="234.70731" />
  </defs>
  <sodipodi:namedview
     id="base"
     pagecolor="#ffffff"
     bordercolor="#666666"
     borderopacity="1.0"
     inkscape:pageopacity="0.0"
     inkscape:pageshadow="2"
     inkscape:zoom="0.49497475"
     inkscape:cx="97.213743"
     inkscape:cy="362.64609"
     inkscape:document-units="mm"
     inkscape:current-layer="layer1"
     inkscape:document-rotation="0"
     showgrid="false"
     showguides="true"
     inkscape:guide-bbox="true"
     inkscape:window-width="1366"
     inkscape:window-height="705"
     inkscape:window-x="-8"
     inkscape:window-y="-8"
     inkscape:window-maximized="1" />
  <metadata
     id="metadata5">
    <rdf:RDF>
      <cc:Work
         rdf:about="">
        <dc:format>image/svg+xml</dc:format>
        <dc:type
           rdf:resource="http://purl.org/dc/dcmitype/StillImage" />
        <dc:title />
      </cc:Work>
    </rdf:RDF>
  </metadata>
  <g
     inkscape:label="Layer 1"
     inkscape:groupmode="layer"
     id="layer1"
     transform="translate(7.9870224e-6,-34.16642)">
    <circle
       style="fill:url(#linearGradient1048);fill-opacity:1.0;stroke:#000000;stroke-width:1.16417;stroke-linecap:square;stroke-linejoin:round;stroke-opacity:1"
       id="path837"
       cx="100.58208"
       cy="134.7485"
       r="100" />
    <path
       style="fill:#9ca39e;fill-opacity:1;stroke:#000000;stroke-width:0.265;stroke-linecap:butt;stroke-linejoin:miter;stroke-miterlimit:4;stroke-dasharray:none;stroke-opacity:1"
       d="M 99.9747,34.584822 193.89224,194.55926 -7.9870224e-6,193.82357 Z"
       id="path839"
       sodipodi:nodetypes="cccc"
       clip-path="url(#clipPath1779)" />
    <path
       style="fill:#7a7a7a;fill-opacity:1;stroke:#000000;stroke-width:0.264583px;stroke-linecap:butt;stroke-linejoin:miter;stroke-opacity:1"
       d="m 27.261492,166.77618 63.342876,-23.78698 91.940702,50.83437 -22.7179,2.08499 -140.315735,-2.39522 -4.310146,-6.24505 z"
       id="path1067"
       sodipodi:nodetypes="ccccccc" />
    <path
       style="fill:#9ca39e;fill-opacity:1;stroke:#000000;stroke-width:0.264583px;stroke-linecap:butt;stroke-linejoin:miter;stroke-opacity:1"
       d="m 26.597272,188.78019 78.669098,-25.1165 43.27827,24.56845 -101.675592,1.32292 z"
       id="path1069"
       sodipodi:nodetypes="ccccc" />
    <path
       style="fill:#7a7a7a;fill-opacity:1;stroke:#000000;stroke-width:0.264583px;stroke-linecap:butt;stroke-linejoin:miter;stroke-opacity:1"
       d="M 26.792421,151.13512 75.973214,134.55952 99.974698,34.584822 Z"
       id="path1061"
       sodipodi:nodetypes="cccc" />
    <path
       style="fill:#e3705c;fill-opacity:1;stroke:#000000;stroke-width:0.179017;stroke-linecap:butt;stroke-linejoin:miter;stroke-miterlimit:4;stroke-dasharray:none;stroke-opacity:1"
       d="m 78.856426,63.85129 c -0.503597,0.730044 1.169033,2.390086 1.169033,2.390086 -0.248457,0.703325 0.133387,2.401838 0.133387,2.401838 l 0.809151,-0.377044 -0.08552,-2.61082 -0.701392,-1.181471 z"
       id="path1097-4"
       sodipodi:nodetypes="ccccccc" />
    <path
       style="fill:#7a7a7a;fill-opacity:1;stroke:#000000;stroke-width:0.264583px;stroke-linecap:butt;stroke-linejoin:miter;stroke-opacity:1"
       d="m 100.54167,55.551374 -0.755956,72.582556 32.883926,19.27678 z"
       id="path1063"
       sodipodi:nodetypes="cccc" />
    <path
       style="fill:#7a7a7a;fill-opacity:1;stroke:#000000;stroke-width:0.264583px;stroke-linecap:butt;stroke-linejoin:miter;stroke-opacity:1"
       d="m 115.10521,60.33109 45.53467,98.98587 4.20499,-14.19773 z"
       id="path1065"
       sodipodi:nodetypes="cccc" />
    <ellipse
       style="fill:#e3bb5c;fill-opacity:1;stroke:#000000;stroke-width:0.179017;stroke-linecap:square;stroke-linejoin:round;stroke-miterlimit:4;stroke-dasharray:none;stroke-opacity:1"
       id="path1095"
       cx="82.371735"
       cy="59.142738"
       rx="1.2991351"
       ry="1.3025222" />
    <path
       style="fill:#b16500;fill-opacity:1;stroke:#000000;stroke-width:0.179017;stroke-linecap:butt;stroke-linejoin:miter;stroke-miterlimit:4;stroke-dasharray:none;stroke-opacity:1"
       d="m 82.720269,66.924474 c -7e-5,9.9e-5 0.295418,0.303258 1.378359,-0.400772 0.180656,-0.117446 0.237651,0.601162 0.237651,0.601162 l -1.647686,1.085431 -0.47529,-0.551066 z"
       id="path1132"
       sodipodi:nodetypes="cscccc" />
    <path
       style="fill:#e3705c;fill-opacity:1;stroke:#000000;stroke-width:0.179017;stroke-linecap:butt;stroke-linejoin:miter;stroke-miterlimit:4;stroke-dasharray:none;stroke-opacity:1"
       d="m 81.326086,60.378466 c 0,0 -2.572739,2.593208 -2.661646,3.807374 -0.06477,0.884521 2.218037,1.46951 2.218037,1.46951 0.141741,0.732329 1.330822,2.003879 1.330822,2.003879 l 0.506974,-0.734755 -1.395321,-2.208343 -1.202944,-0.663888 1.711051,-3.339799 z"
       id="path1097"
       sodipodi:nodetypes="csccccccc" />
    <ellipse
       style="fill:#e3bb5c;fill-opacity:1;stroke:#000000;stroke-width:0.179;stroke-linecap:square;stroke-linejoin:round;stroke-miterlimit:4;stroke-dasharray:none"
       id="path1923"
       cx="84.17057"
       cy="62.331551"
       rx="0.40159971"
       ry="0.41931733" />
    <ellipse
       style="fill:#e3bb5c;fill-opacity:1;stroke:#000000;stroke-width:0.179;stroke-linecap:square;stroke-linejoin:round;stroke-miterlimit:4;stroke-dasharray:none"
       id="path1923-2"
       cx="83.201996"
       cy="63.648563"
       rx="0.40159971"
       ry="0.41931733" />
    <path
       style="fill:#a8ff61;fill-opacity:1;stroke:#000000;stroke-width:0.179;stroke-linecap:butt;stroke-linejoin:miter;stroke-miterlimit:4;stroke-dasharray:none;stroke-opacity:1"
       d="m 80.80805,61.936574 c -0.277716,0.454667 0.05912,1.686028 0.05912,1.686028 l 2.069663,0.38336 -2.67e-4,-0.830937 c -0.683757,0.124721 -1.555063,-0.135161 -1.555063,-0.135161 0,0 0.352144,-1.527935 0.02405,-1.958827 -0.209007,-0.274494 -0.59751,0.855537 -0.59751,0.855537 z"
       id="path1099-5"
       sodipodi:nodetypes="cccccsc" />
    <path
       style="fill:#a8ff61;fill-opacity:1;stroke:#000000;stroke-width:0.179;stroke-linecap:butt;stroke-linejoin:miter;stroke-miterlimit:4;stroke-dasharray:none;stroke-opacity:1"
       d="m 81.389454,61.64759 c -0.08352,0.526187 0.697101,1.536306 0.697101,1.536306 l 2.059601,-0.434177 -0.316863,-0.768149 c -0.584652,0.375848 -1.489251,0.467571 -1.489251,0.467571 0,0 -0.25662,-1.546848 -0.724144,-1.820219 -0.297832,-0.174147 -0.226444,1.018668 -0.226444,1.018668 z"
       id="path1099"
       sodipodi:nodetypes="cccccsc" />
    <path
       style="fill:none;stroke:#000000;stroke-width:0.275411;stroke-linecap:butt;stroke-linejoin:miter;stroke-miterlimit:4;stroke-dasharray:none;stroke-opacity:1"
       d="m 86.617678,60.244873 -1.647676,1.736697 2.82007,-0.200384"
       id="path1101" />
    <ellipse
       style="fill:none;fill-opacity:1;stroke:#dfd0d0;stroke-width:0.275514;stroke-linecap:square;stroke-linejoin:round;stroke-miterlimit:4;stroke-dasharray:none;stroke-opacity:1"
       id="path1103"
       cx="54.3391"
       cy="91.931602"
       rx="0.60987806"
       ry="0.26544559"
       transform="matrix(0.90811004,-0.41873161,0.38334027,0.92360719,0,0)" />
    <path
       style="fill:#b16500;fill-opacity:1;stroke:#000000;stroke-width:0.179017;stroke-linecap:butt;stroke-linejoin:miter;stroke-miterlimit:4;stroke-dasharray:none;stroke-opacity:1"
       d="m 80.967997,68.26617 c -1.12e-4,4.5e-5 0.08181,0.415384 1.373486,0.417167 0.215477,2.97e-4 -0.129292,0.63337 -0.129292,0.63337 l -1.973055,0.0092 -0.09713,-0.721208 z"
       id="path1132-6"
       sodipodi:nodetypes="cscccc" />
    <path
       style="fill:none;stroke:#fff546;stroke-width:0.151312;stroke-linecap:butt;stroke-linejoin:miter;stroke-miterlimit:4;stroke-dasharray:none;stroke-opacity:1"
       d="M 80.122008,64.052243 84.159905,62.282281 72.862389,93.487558"
       id="path1105"
       sodipodi:nodetypes="ccc" />
    <path
       style="fill:#a8ff61;fill-opacity:1;stroke:#000000;stroke-width:0.179017;stroke-linecap:butt;stroke-linejoin:miter;stroke-miterlimit:4;stroke-dasharray:none;stroke-opacity:1"
       d="m 81.326086,60.378466 0.506968,0.333978 -1.711046,3.339799 c 0,0 -1.292203,0.0391 -1.457568,0.133597 -0.188988,-0.425223 2.661646,-3.807374 2.661646,-3.807374 z"
       id="path1107"
       sodipodi:nodetypes="ccccc" />
    <path
       style="fill:#ffffff;fill-opacity:1;stroke:#000000;stroke-width:0.179017;stroke-linecap:butt;stroke-linejoin:miter;stroke-miterlimit:4;stroke-dasharray:none;stroke-opacity:1"
       d="m 81.326086,60.378466 c 0,0 -0.610432,-0.72772 -1.22434,-0.702754 -1.397788,0.05687 -1.998911,1.455941 -1.926884,2.928382 0.02095,0.427712 0.716974,1.039099 0.716974,1.039099 z"
       id="path1109"
       sodipodi:nodetypes="csscc" />
    <path
       style="fill:#000000;fill-opacity:1;stroke:#000000;stroke-width:0.179017;stroke-linecap:butt;stroke-linejoin:miter;stroke-miterlimit:4;stroke-dasharray:none;stroke-opacity:1"
       d="m 80.953151,60.832891 c 0.375848,-0.233861 0.879903,-0.120445 0.879903,-0.120445 l -0.506968,-0.333978 z"
       id="path1111"
       sodipodi:nodetypes="cccc" />
    <path
       style="fill:#ad6b35;fill-opacity:1;stroke:#000000;stroke-width:0.179017;stroke-linecap:butt;stroke-linejoin:miter;stroke-miterlimit:4;stroke-dasharray:none;stroke-opacity:1"
       d="m 81.143602,58.754687 c 0,0 -0.323533,0.56175 -0.280074,0.861988 0.03145,0.217121 0.36969,0.531356 0.36969,0.531356 0,0 0.198777,0.340613 0.201641,0.531352 0.0049,0.322449 -0.387068,0.616816 -0.313679,0.909216 0.04225,0.168329 0.192003,0.111971 0.268262,0.05901 0.299072,-0.207694 0.213466,-1.1099 0.213466,-1.1099 0,0 -0.145981,-0.440586 -0.145515,-0.566782 0.0011,-0.287754 0.123261,-0.673052 0.123261,-0.673052 z"
       id="path1167"
       sodipodi:nodetypes="cscssscscc" />
    <path
       style="fill:#000000;fill-opacity:1;stroke:#000000;stroke-width:0.179017;stroke-linecap:butt;stroke-linejoin:miter;stroke-miterlimit:4;stroke-dasharray:none;stroke-opacity:1"
       d="m 79.451982,62.934715 0.918622,0.495933 -0.248596,0.621595 -1.230176,-0.40905 z"
       id="path1113" />
    <path
       style="fill:#ff6500;fill-opacity:1;stroke:#000000;stroke-width:0.207007;stroke-linecap:square;stroke-linejoin:round;stroke-miterlimit:4;stroke-dasharray:none;stroke-opacity:1"
       id="path1095-1"
       sodipodi:type="arc"
       sodipodi:cx="61.984867"
       sodipodi:cy="-82.241936"
       sodipodi:rx="1.5016584"
       sodipodi:ry="1.5067834"
       sodipodi:start="0"
       sodipodi:end="3.1256373"
       sodipodi:arc-type="slice"
       d="M 63.486526,-82.241936 A 1.5016584,1.5067834 0 0 1 61.996847,-80.7352 1.5016584,1.5067834 0 0 1 60.4834,-82.217895 l 1.501467,-0.02404 z"
       transform="matrix(0.94699877,-0.3212372,-0.2852362,-0.95845726,0,0)" />
    <path
       style="fill:none;stroke:#000000;stroke-width:0.454427;stroke-linecap:butt;stroke-linejoin:miter;stroke-miterlimit:4;stroke-dasharray:none;stroke-opacity:1"
       d="m 81.647725,59.038081 0.649759,1.416958"
       id="path1130" />
    <ellipse
       style="fill:#b16500;fill-opacity:1;stroke:#000000;stroke-width:0.151312;stroke-linecap:square;stroke-linejoin:round;stroke-miterlimit:4;stroke-dasharray:none;stroke-opacity:1"
       id="path1134"
       cx="74.047417"
       cy="86.789558"
       rx="1.7322682"
       ry="1.6772757" />
    <ellipse
       style="fill:#b16500;fill-opacity:1;stroke:#000000;stroke-width:0.151312;stroke-linecap:square;stroke-linejoin:round;stroke-miterlimit:4;stroke-dasharray:none;stroke-opacity:1"
       id="path1144"
       cx="69.724968"
       cy="87.160759"
       rx="0.60491908"
       ry="0.61866724" />
    <path
       style="fill:#b16500;fill-opacity:1;stroke:#000000;stroke-width:0.151312;stroke-linecap:butt;stroke-linejoin:miter;stroke-miterlimit:4;stroke-dasharray:none;stroke-opacity:1"
       d="m 77.374468,92.756255 0.324452,0.49494 1.333574,-0.659914 c 0,0 -0.131013,-0.234438 -0.24747,-0.274964 -0.232671,-0.08096 -0.482287,0.123377 -0.728649,0.12375 -0.13937,2.14e-4 -0.412444,-0.06874 -0.412444,-0.06874 z"
       id="path1146"
       sodipodi:nodetypes="cccsscc" />
    <path
       style="fill:#476500;fill-opacity:1;stroke:#000000;stroke-width:0.151312;stroke-linecap:butt;stroke-linejoin:miter;stroke-miterlimit:4;stroke-dasharray:none;stroke-opacity:1"
       d="m 73.414992,88.686809 -0.879881,0.164977 c -0.367496,-0.400904 -1.374812,-0.439941 -1.374812,-0.439941 l -1.044861,-1.759764 c -0.03341,0.734991 -0.549929,1.099857 -0.549929,1.099857 0,0 0.545795,1.231422 0.879882,1.264831 0,0 0.981608,0.461521 1.649781,0.49493 l -1.154846,2.529661 3.959471,-0.109993 -0.38495,-2.364681 1.264831,1.869749 1.59479,1.319825 L 77.8694,92.151343 76.494579,90.9415 75.119765,89.236728 74.459853,88.851779 Z"
       id="path1136"
       sodipodi:nodetypes="ccccccccccccccccc" />
    <path
       style="fill:#473100;fill-opacity:1;stroke:#000000;stroke-width:0.151;stroke-linecap:butt;stroke-linejoin:miter;stroke-miterlimit:4;stroke-dasharray:none;stroke-opacity:1"
       d="m 70.629389,94.776313 c -0.233861,0.133635 -0.782472,1.491302 -1.349436,1.963772 l 2.033108,1.067523 c -0.118118,-0.779576 0.686853,-2.522201 0.670149,-2.722653 -0.141741,-0.4016 1.610117,-2.14201 1.680988,-3.134197 l -2.129449,0.109418 c -0.803199,0.779576 -0.43289,2.338161 -0.90536,2.716137 z"
       id="path1138"
       sodipodi:nodetypes="ccccccc" />
    <path
       style="fill:#471400;fill-opacity:1;stroke:#000000;stroke-width:0.151312;stroke-linecap:butt;stroke-linejoin:miter;stroke-miterlimit:4;stroke-dasharray:none;stroke-opacity:1"
       d="m 69.747105,97.000323 -0.602732,0.554121 c 0,0 0.05347,0.616338 0.26248,0.806877 0.304426,0.277516 0.807992,0.380434 1.205454,0.272199 0.210138,-0.05722 0.476351,-0.447181 0.476351,-0.447181 l -0.243035,-0.61245 z"
       id="path1140"
       sodipodi:nodetypes="ccssccc" />
    <path
       style="fill:#471400;fill-opacity:1;stroke:#000000;stroke-width:0.151312;stroke-linecap:butt;stroke-linejoin:miter;stroke-miterlimit:4;stroke-dasharray:none;stroke-opacity:1"
       d="m 77.229975,96.564505 c 0,0 0.05629,0.576708 0.233716,0.783645 0.194797,0.227201 0.811138,0.384947 0.811138,0.384947 l 1.141097,-1.113603 0.288713,-1.017359 c 0,0 -0.426537,-0.393514 -0.67366,-0.343709 -0.264593,0.05333 -0.522427,0.618666 -0.522427,0.618666 l -0.61867,-0.02747 z"
       id="path1142"
       sodipodi:nodetypes="cscccsccc" />
    <path
       style="fill:#473100;fill-opacity:1;stroke:#000000;stroke-width:0.151;stroke-linecap:butt;stroke-linejoin:miter;stroke-miterlimit:4;stroke-dasharray:none;stroke-opacity:1"
       d="m 72.063916,92.060176 2.927229,-0.144158 c 0,0 -0.455006,0.38448 -0.20696,0.597092 0.668174,0.172284 1.685633,0.569742 1.819267,0.937237 0,0 1.001735,1.849257 1.556888,2.120927 l -1.166572,1.205452 c 0,0 -1.430406,-1.702202 -1.477653,-2.410907 0,0 -1.47846,0.03608 -2.157968,-0.210087 -0.569388,-0.206275 -1.23417,-0.57097 -1.501433,-1.022973 -0.32374,-0.547518 0.207202,-1.072583 0.207202,-1.072583 z"
       id="path1985"
       sodipodi:nodetypes="cccccccssc" />
    <path
       style="fill:none;stroke:#000000;stroke-width:0.264583px;stroke-linecap:butt;stroke-linejoin:miter;stroke-opacity:1"
       d="m 72.369102,86.316488 0.533046,1.711539 1.464659,0.460658 0.850445,-0.484283 0.673272,-1.665457"
       id="path1987" />
    <path
       style="fill:#6537b1;fill-opacity:1;stroke:#000000;stroke-width:0.151312;stroke-linecap:butt;stroke-linejoin:miter;stroke-miterlimit:4;stroke-dasharray:none;stroke-opacity:1"
       d="m 72.535111,88.851781 c 0.18907,-0.29385 0.23039,-0.729026 0.533933,-0.902097 0.596794,-0.340263 1.555844,-0.465638 2.06094,0 0.939431,0.866047 0.783929,2.633507 0.311088,3.820517 -0.125682,0.315507 -0.758276,0.680497 -0.758276,0.680497 l -3.839955,0.136111 c 0,0 -0.219495,-0.761074 -0.12638,-1.127682 0.26085,-1.027043 1.245277,-1.716221 1.81865,-2.607346 z"
       id="path1148"
       sodipodi:nodetypes="ssssccss" />
    <path
       style="fill:#1f0800;fill-opacity:1;stroke:#000000;stroke-width:0.151312;stroke-linecap:butt;stroke-linejoin:miter;stroke-miterlimit:4;stroke-dasharray:none;stroke-opacity:1"
       d="m 72.369103,86.316487 0.524952,0.9527 0.116674,-0.369415 c 0,0 0.291643,0.583287 0.311081,0.427743 0.01955,-0.155549 0.252761,-0.408305 0.252761,-0.408305 l 0.408298,0.408305 0.311086,-0.466633 0.233309,0.388861 0.583287,0.194424 0.233316,-0.05834 0.252754,-0.524959 0.136088,-0.213862 -0.01955,-0.680497 -2.488683,-0.369416 z"
       id="path1165" />
    <path
       style="fill:#ff6500;fill-opacity:1;stroke:#000000;stroke-width:0.168465;stroke-linecap:square;stroke-linejoin:round;stroke-miterlimit:4;stroke-dasharray:none;stroke-opacity:1"
       id="path1134-4"
       sodipodi:type="arc"
       sodipodi:cx="74.051712"
       sodipodi:cy="-86.384377"
       sodipodi:rx="1.9286386"
       sodipodi:ry="1.867412"
       sodipodi:start="0"
       sodipodi:end="3.1415927"
       sodipodi:open="true"
       sodipodi:arc-type="chord"
       d="m 75.980351,-86.384377 a 1.9286386,1.867412 0 0 1 -0.96432,1.617227 1.9286386,1.867412 0 0 1 -1.928638,0 1.9286386,1.867412 0 0 1 -0.96432,-1.617227 z"
       transform="scale(1,-1)" />
    <circle
       style="fill:#131313;fill-opacity:1;stroke:#000000;stroke-width:0.0649999;stroke-linecap:square;stroke-linejoin:round;stroke-miterlimit:4;stroke-dasharray:none;stroke-opacity:1"
       id="path1194"
       cx="86.688347"
       cy="60.148495"
       r="0.27112016" />
    <circle
       style="fill:#131313;fill-opacity:1;stroke:#000000;stroke-width:0.0649999;stroke-linecap:square;stroke-linejoin:round;stroke-miterlimit:4;stroke-dasharray:none;stroke-opacity:1"
       id="path1194-1"
       cx="87.781334"
       cy="61.689148"
       r="0.27112016" />
    <g
       id="g1040"
       transform="translate(-0.52190491,48.067149)"
       clip-path="url(#clipPath1809)">
      <path
         style="fill:#d3d6d4;fill-opacity:1;stroke:#000000;stroke-width:0.264583px;stroke-linecap:butt;stroke-linejoin:miter;stroke-opacity:1"
         d="m 191.95761,213.98757 c 0,0 -24.44027,-11.95861 -32.74288,-12.66118 -8.57087,-0.72527 -26.32368,-1.24729 -26.32368,-1.24729 0,0 -10.40559,-15.8149 -19.12022,-20.91839 -7.86781,-4.60757 -26.836307,-5.29166 -26.836307,-5.29166 0,0 9.426416,13.05064 7.181548,19.65476 -1.968591,5.79134 -9.686823,7.91516 -15.497024,9.82738 -15.237119,5.01475 -48.002975,3.40178 -48.002975,3.40178 l -11.339286,19.27679 87.898294,16.3837 70.69279,-17.37252 z"
         id="path872"
         sodipodi:nodetypes="cscscssccccc"
         clip-path="none"
         transform="translate(-9.3177287,-66.039932)" />
      <path
         style="fill:#b3b9b5;fill-opacity:1;stroke:#000000;stroke-width:0.264583px;stroke-linecap:butt;stroke-linejoin:miter;stroke-opacity:1"
         d="m 126.62202,231.85059 1.13393,-9.82737 4.53571,17.00892 4.53572,7.9375 L 127,237.52024 Z"
         id="path923"
         clip-path="none"
         transform="translate(2.8531063,-71.331599)" />
      <path
         style="fill:#b3b9b5;fill-opacity:1;stroke:#000000;stroke-width:0.264583px;stroke-linecap:butt;stroke-linejoin:miter;stroke-opacity:1"
         d="m 134.3795,228.79615 1.13393,-9.82737 4.53571,17.00892 4.53572,7.9375 -9.82738,-9.4494 z"
         id="path923-8"
         clip-path="none"
         transform="translate(2.8531063,-71.331599)" />
      <path
         style="fill:#b3b9b5;fill-opacity:1;stroke:#000000;stroke-width:0.264583px;stroke-linecap:butt;stroke-linejoin:miter;stroke-opacity:1"
         d="m 141.93903,229.93007 1.13393,-9.82737 4.53571,17.00892 4.53572,7.9375 -9.82738,-9.4494 z"
         id="path923-1"
         clip-path="none"
         transform="translate(2.8531063,-71.331599)" />
      <path
         style="fill:#c0c5c2;fill-opacity:1;stroke:#000000;stroke-width:0.264583px;stroke-linecap:butt;stroke-linejoin:miter;stroke-opacity:1"
         d="m 77.616793,107.82912 c 0,0 14.403517,5.35342 17.084527,11.71725 2.283884,5.42118 -9.735906,15.13007 -17.986294,17.9863 -13.999158,4.84642 -36.68662,3.22901 -36.68662,3.22901 v 0 c 0,0 19.053553,0.0172 29.272912,-3.45043 5.91034,-2.00547 13.731336,-4.34094 15.649389,-10.28022 2.105601,-6.52004 -7.333914,-19.20191 -7.333914,-19.20191 z"
         id="path946"
         sodipodi:nodetypes="cssccssc"
         clip-path="none" />
    </g>
    <path
       style="fill:#135af5;fill-opacity:1;stroke:#000000;stroke-width:0.264583px;stroke-linecap:butt;stroke-linejoin:miter;stroke-opacity:1"
       d="m 9.4493965,174.77356 c 0,0 17.5604945,-10.98142 20.0327375,-19.65476 2.138156,8.67334 16.488217,19.65476 16.488217,19.65476 0,0 16.724489,-10.96131 18.708864,-19.65476 1.336348,8.55262 17.105252,19.65476 17.105252,19.65476 0,0 15.404356,-11.00855 17.105249,-19.65476 1.842634,8.64621 17.105244,19.65476 17.105244,19.65476 0,0 15.9389,-11.00855 17.63979,-19.65476 1.79539,8.69345 16.57071,19.65476 16.57071,19.65476 0,0 12.56167,-10.98142 14.16529,-19.65476 2.6727,8.55262 18.17432,19.65476 18.17432,19.65476 0,0 12.79554,-11.03532 16.30345,-19.65476 l 2.40542,80.56884 L -0.2672775,235.42037 -7.9870224e-6,174.77356 Z"
       id="path992"
       sodipodi:nodetypes="cccccccccccccccc"
       clip-path="url(#clipPath1767)"
       transform="translate(0,19.050006)" />
    <path
       style="fill:#3e78f7;fill-opacity:1;stroke:#000000;stroke-width:0.264583px;stroke-linecap:butt;stroke-linejoin:miter;stroke-opacity:1"
       d="m 9.4493965,174.77356 c 0,0 17.5604945,-10.98142 20.0327375,-19.65476 2.138156,8.67334 16.488217,19.65476 16.488217,19.65476 0,0 16.724489,-10.96131 18.708864,-19.65476 1.336348,8.55262 17.105252,19.65476 17.105252,19.65476 0,0 15.404356,-11.00855 17.105249,-19.65476 1.842634,8.64621 17.105244,19.65476 17.105244,19.65476 0,0 15.9389,-11.00855 17.63979,-19.65476 1.79539,8.69345 16.57071,19.65476 16.57071,19.65476 0,0 12.56167,-10.98142 14.16529,-19.65476 2.6727,8.55262 18.17432,19.65476 18.17432,19.65476 0,0 12.79554,-11.03532 16.30345,-19.65476 l 2.40542,80.56884 L -0.2672775,235.42037 -7.9870224e-6,174.77356 Z"
       id="path992-1"
       sodipodi:nodetypes="cccccccccccccccc"
       clip-path="url(#clipPath1866)"
       transform="translate(-0.26558861,39.07361)" />
    <path
       style="fill:#135af5;fill-opacity:1;stroke:#000000;stroke-width:0.264583px;stroke-linecap:butt;stroke-linejoin:miter;stroke-opacity:1"
       d="m 9.4493965,174.77356 c 0,0 17.5604945,-10.98142 20.0327375,-19.65476 2.138156,8.67334 16.488217,19.65476 16.488217,19.65476 0,0 16.724489,-10.96131 18.708864,-19.65476 1.336348,8.55262 17.105252,19.65476 17.105252,19.65476 0,0 15.404356,-11.00855 17.105249,-19.65476 1.842634,8.64621 17.105244,19.65476 17.105244,19.65476 0,0 15.9389,-11.00855 17.63979,-19.65476 1.79539,8.69345 16.57071,19.65476 16.57071,19.65476 0,0 12.56167,-10.98142 14.16529,-19.65476 2.6727,8.55262 18.17432,19.65476 18.17432,19.65476 0,0 12.79554,-11.03532 16.30345,-19.65476 l 2.40542,80.56884 L -0.2672775,235.42037 -7.9870224e-6,174.77356 Z"
       id="path992-6"
       sodipodi:nodetypes="cccccccccccccccc"
       clip-path="url(#clipPath1917)"
       transform="translate(0.98811139,59.061389)" />
    <circle
       style="fill:none;fill-opacity:1;stroke:#000000;stroke-width:1.16417;stroke-linecap:square;stroke-linejoin:round;stroke-opacity:1"
       id="path837-7"
       cx="100.58208"
       cy="134.7485"
       r="100" />
  </g>
</svg>
